<svg width="568" height="568" viewBox="0 0 568 568" fill="none" xmlns="http://www.w3.org/2000/svg">
<path d="M235 405.24L94 546.24L115.69 567.93L256.69 426.93C262.68 420.94 272.39 420.94 278.38 426.93L300.07 405.24C282.1 387.27 252.97 387.27 235 405.24Z" fill="#0071BC"/>
<path d="M441.067 546.233L300.072 405.237L278.378 426.931L419.373 567.927L441.067 546.233Z" fill="#2E3192"/>
<path d="M224.15 199.18L245.84 220.87C251.83 214.88 261.54 214.88 267.53 220.87C273.52 226.86 273.52 236.57 267.53 242.56L289.22 264.25C307.19 246.28 307.19 217.14 289.22 199.17C271.25 181.2 242.12 181.21 224.15 199.18Z" fill="#00A99D"/>
<path d="M300.07 340.17L278.38 318.48C272.39 324.47 262.68 324.47 256.69 318.48C250.7 312.49 250.7 302.78 256.69 296.79L235 275.1C217.03 293.07 217.03 322.21 235 340.18C252.97 358.15 282.1 358.14 300.07 340.17Z" fill="#D9E021"/>
<path d="M224.15 199.18L94 329.33L115.69 351.02L245.84 220.87C251.83 214.88 261.54 214.88 267.53 220.87L289.22 199.18C271.26 181.21 242.12 181.21 224.15 199.18Z" fill="#8CC63F"/>
<path d="M267.53 220.87C273.52 226.86 273.52 236.57 267.53 242.56L235 275.1C217.03 293.07 217.03 322.21 235 340.18L256.69 318.49C250.7 312.5 250.7 302.79 256.69 296.8L289.23 264.26C307.2 246.29 307.2 217.15 289.23 199.18L267.53 220.87Z" fill="#39B54A"/>
<path d="M375.99 177.48L397.68 199.17L278.38 318.48L278.39 318.49C272.4 324.48 262.69 324.48 256.7 318.49L235 340.18C252.97 358.15 282.11 358.15 300.08 340.18L300.07 340.17L419.38 220.86L441.07 242.55L473.61 144.94L375.99 177.48Z" fill="#009245"/>
<path d="M229.57 96.14C214.59 81.16 214.59 56.88 229.57 41.91C244.55 26.94 268.82 26.93 283.8 41.91L305.49 20.22C278.53 -6.74 234.83 -6.74 207.88 20.22C180.92 47.18 180.92 90.88 207.88 117.83L229.57 96.14Z" fill="#F15A24"/>
<path d="M283.8 41.91C298.78 56.89 298.78 81.17 283.8 96.14C268.82 111.12 244.55 111.12 229.57 96.14L207.88 117.83C234.84 144.79 278.54 144.79 305.49 117.83C332.45 90.87 332.45 47.17 305.49 20.22L283.8 41.91Z" fill="#FBB03B"/>
</svg>
