<svg fill="none" height="568" viewBox="0 0 972 568" width="972" xmlns="http://www.w3.org/2000/svg"><path d="m488.86 3.9h29.65v102.96c0 16.39-1.3 27.88-3.91 34.49-2.6 6.61-6.89 11.87-12.87 15.77s-13.15 5.85-21.52 5.85c-17.09 0-31.65-7.49-43.67-22.47l21.31-19.94c4.71 5.34 8.72 8.93 12.03 10.76s6.5 2.74 9.6 2.74c3.17 0 5.52-1.34 7.07-4.01s2.32-8.54 2.32-17.62v-108.53zm114.74 37.45c10.83 0 21.01 2.71 30.54 8.12 9.53 5.42 16.97 12.76 22.31 22.05 5.34 9.28 8.02 19.3 8.02 30.06 0 10.83-2.69 20.96-8.07 30.38s-12.72 16.79-22 22.1-19.51 7.97-30.69 7.97c-16.46 0-30.5-5.86-42.14-17.56-11.64-11.71-17.46-25.93-17.46-42.67 0-17.93 6.58-32.88 19.73-44.83 11.53-10.41 24.79-15.62 39.76-15.62zm.48 27.11c-8.95 0-16.4 3.11-22.35 9.34-5.95 6.22-8.93 14.19-8.93 23.89 0 9.99 2.94 18.07 8.83 24.26 5.88 6.19 13.33 9.28 22.34 9.28s16.52-3.13 22.51-9.39c5.98-6.26 8.98-14.31 8.98-24.16s-2.95-17.84-8.83-24c-5.87-6.14-13.39-9.22-22.55-9.22zm111.42-68.46v56.96c5.2-5.2 10.83-9.11 16.88-11.71s12.52-3.9 19.41-3.9c14.99 0 27.71 5.66 38.19 16.98 10.47 11.32 15.71 25.84 15.71 43.57 0 17.09-5.42 31.38-16.25 42.88s-23.67 17.25-38.51 17.25c-6.61 0-12.76-1.18-18.46-3.54-5.7-2.35-11.36-6.2-16.99-11.55v12.13h-28.58v-159.07zm30.28 67.93c-9.07 0-16.6 3.09-22.57 9.28-5.98 6.19-8.97 14.28-8.97 24.26 0 10.2 2.99 18.44 8.97 24.74s13.5 9.44 22.57 9.44c8.79 0 16.19-3.2 22.2-9.6 6.02-6.4 9.02-14.56 9.02-24.47 0-9.85-2.95-17.91-8.86-24.21-5.9-6.29-13.36-9.44-22.36-9.44zm-214.41 160.02-21.88 19.3c-7.68-10.69-15.5-16.03-23.46-16.03-3.88 0-7.05 1.04-9.51 3.11-2.47 2.07-3.7 4.41-3.7 7.01s.88 5.06 2.65 7.38c2.39 3.09 9.62 9.74 21.66 19.94 11.27 9.42 18.11 15.37 20.5 17.83 5.98 6.05 10.23 11.83 12.73 17.35s3.75 11.55 3.75 18.09c0 12.73-4.4 23.24-13.2 31.54s-20.27 12.45-34.42 12.45c-11.05 0-20.68-2.71-28.88-8.12-8.2-5.42-15.23-13.92-21.07-25.53l24.83-14.98c7.47 13.71 16.06 20.57 25.78 20.57 5.07 0 9.33-1.48 12.79-4.43 3.45-2.95 5.18-6.36 5.18-10.23 0-3.52-1.3-7.03-3.91-10.55s-8.35-8.9-17.22-16.14c-16.91-13.78-27.83-24.42-32.76-31.91-4.94-7.49-7.4-14.96-7.4-22.41 0-10.76 4.1-19.99 12.31-27.69 8.2-7.7 18.32-11.55 30.36-11.55 7.74 0 15.12 1.79 22.13 5.38 6.99 3.58 14.57 10.12 22.74 19.62zm30.15-23h28.79v42.3h17.09v24.79h-17.09v89.98h-28.79v-89.98h-14.77v-24.79h14.77zm144.9 42.3h28.8v114.77h-28.8v-12.13c-5.62 5.34-11.25 9.2-16.91 11.55-5.65 2.36-11.78 3.54-18.39 3.54-14.82 0-27.64-5.75-38.46-17.25-10.82-11.49-16.23-25.79-16.23-42.88 0-17.72 5.24-32.24 15.7-43.57 10.47-11.32 23.18-16.98 38.14-16.98 6.88 0 13.34 1.3 19.38 3.9s11.62 6.51 16.75 11.71v-12.66zm-30.27 23.63c-8.9 0-16.3 3.15-22.18 9.44s-8.83 14.36-8.83 24.21c0 9.92 2.99 18.07 8.99 24.47 5.99 6.4 13.37 9.6 22.13 9.6 9.04 0 16.54-3.15 22.5-9.44 5.95-6.29 8.93-14.54 8.93-24.74 0-9.99-2.98-18.07-8.93-24.26-5.96-6.19-13.5-9.28-22.61-9.28zm80.36-23.63h24.68v14.45c2.67-5.7 6.23-10.02 10.65-12.98 4.44-2.95 9.28-4.43 14.56-4.43 3.72 0 7.63.98 11.71 2.95l-8.97 24.79c-3.38-1.69-6.15-2.53-8.33-2.53-4.43 0-8.18 2.74-11.23 8.23-3.06 5.49-4.59 16.25-4.59 32.28l.1 5.59v46.41h-28.58zm84.08-42.3h28.79v42.3h17.09v24.79h-17.09v89.98h-28.79v-89.98h-14.77v-24.79h14.77zm-404.05 360.02v-155.18h24.4c14.15 0 24.51.91 31.05 2.74 9.3 2.46 16.69 7.03 22.18 13.71s8.24 14.56 8.24 23.63c0 5.91-1.25 11.27-3.75 16.09-2.49 4.82-6.56 9.33-12.18 13.55 9.42 4.43 16.31 9.97 20.68 16.62 4.35 6.64 6.53 14.5 6.53 23.57 0 8.72-2.25 16.67-6.76 23.84s-10.31 12.54-17.42 16.09-16.94 5.33-29.47 5.33h-43.5zm29.53-127.01v32.7h6.46c7.2 0 12.55-1.51 16.05-4.54 3.49-3.02 5.24-7.14 5.24-12.34 0-4.85-1.66-8.7-4.98-11.55-3.32-2.84-8.36-4.27-15.14-4.27zm0 59.07v39.77h7.4c12.27 0 20.54-1.55 24.81-4.64 4.26-3.09 6.4-7.6 6.4-13.5 0-6.68-2.51-11.96-7.51-15.82-5.01-3.87-13.33-5.8-24.96-5.8h-6.14zm145.44-49.79c10.83 0 21.01 2.71 30.54 8.12 9.53 5.42 16.97 12.76 22.31 22.05 5.34 9.28 8.02 19.3 8.02 30.06 0 10.83-2.69 20.96-8.07 30.38s-12.72 16.79-22 22.1-19.51 7.97-30.69 7.97c-16.46 0-30.5-5.86-42.14-17.56-11.64-11.71-17.46-25.93-17.46-42.67 0-17.93 6.58-32.88 19.73-44.83 11.53-10.41 24.79-15.62 39.76-15.62zm-22.89-48.21c4.22 0 7.81 1.48 10.76 4.43s4.43 6.51 4.43 10.65c0 4.22-1.48 7.81-4.43 10.76s-6.54 4.43-10.76 4.43c-4.15 0-7.7-1.48-10.65-4.43s-4.44-6.54-4.44-10.76c0-4.15 1.48-7.7 4.44-10.65s6.5-4.43 10.65-4.43zm23.37 75.32c-8.95 0-16.4 3.11-22.35 9.34-5.95 6.22-8.93 14.19-8.93 23.89 0 9.99 2.94 18.07 8.83 24.26 5.88 6.19 13.33 9.28 22.34 9.28s16.52-3.13 22.51-9.39c5.98-6.26 8.98-14.31 8.98-24.16s-2.95-17.84-8.83-24c-5.88-6.14-13.39-9.22-22.55-9.22zm23.37-75.32c4.22 0 7.8 1.48 10.75 4.43s4.44 6.51 4.44 10.65c0 4.22-1.48 7.81-4.44 10.76-2.95 2.95-6.53 4.43-10.75 4.43-4.16 0-7.7-1.48-10.66-4.43-2.95-2.95-4.43-6.54-4.43-10.76 0-4.15 1.48-7.7 4.43-10.65s6.5-4.43 10.66-4.43zm52.72 51.17h24.68v14.45c2.67-5.7 6.23-10.02 10.65-12.98 4.44-2.95 9.28-4.43 14.56-4.43 3.72 0 7.63.98 11.71 2.95l-8.97 24.79c-3.38-1.69-6.15-2.53-8.33-2.53-4.43 0-8.18 2.74-11.23 8.23-3.06 5.49-4.59 16.25-4.59 32.28l.1 5.59v46.41h-28.58zm145.02 16.03-17.82 17.83c-7.25-7.17-13.82-10.76-19.73-10.76-3.23 0-5.77.69-7.6 2.06s-2.74 3.08-2.74 5.12c0 1.55.58 2.97 1.74 4.27s4.03 3.08 8.6 5.33l10.55 5.27c11.11 5.49 18.74 11.08 22.89 16.77 4.15 5.7 6.23 12.38 6.23 20.04 0 10.2-3.75 18.71-11.23 25.53-7.49 6.82-17.53 10.23-30.12 10.23-16.74 0-30.1-6.54-40.09-19.62l17.72-19.3c3.38 3.94 7.33 7.12 11.87 9.55 4.54 2.42 8.56 3.64 12.08 3.64 3.8 0 6.85-.91 9.17-2.74s3.48-3.94 3.48-6.33c0-4.43-4.19-8.76-12.56-12.97l-9.7-4.85c-18.57-9.35-27.85-21.06-27.85-35.13 0-9.07 3.5-16.83 10.5-23.26 6.99-6.44 15.94-9.65 26.85-9.65 7.45 0 14.47 1.64 21.05 4.9 6.56 3.26 12.14 7.95 16.71 14.07zm138.69 49.68h-92.51c1.33 8.16 4.9 14.65 10.7 19.46 5.81 4.82 13.2 7.22 22.21 7.22 10.75 0 20-3.76 27.74-11.29l24.26 11.39c-6.05 8.58-13.29 14.92-21.73 19.04-8.44 4.11-18.46 6.17-30.07 6.17-18 0-32.66-5.68-43.99-17.04-11.32-11.35-16.98-25.58-16.98-42.67 0-17.51 5.64-32.05 16.93-43.62 11.28-11.57 25.44-17.35 42.46-17.35 18.07 0 32.77 5.79 44.09 17.35 11.32 11.57 16.98 26.85 16.98 45.84zm-28.8-22.67c-1.91-6.4-5.66-11.6-11.26-15.61s-12.1-6.01-19.49-6.01c-8.03 0-15.08 2.25-21.14 6.75-3.8 2.81-7.33 7.77-10.56 14.87z" fill="#797979"/><path d="m141 405.24-141 141 21.69 21.69 141-141c5.99-5.99 15.7-5.99 21.69 0l21.69-21.69c-17.97-17.97-47.1-17.97-65.07 0z" fill="#0071bc"/><path d="m347.067 546.233-140.995-140.996-21.694 21.694 140.995 140.996z" fill="#2e3192"/><path d="m130.15 199.18 21.69 21.69c5.99-5.99 15.7-5.99 21.69 0s5.99 15.7 0 21.69l21.69 21.69c17.97-17.97 17.97-47.11 0-65.08s-47.1-17.96-65.07.01z" fill="#00a99d"/><path d="m206.07 340.17-21.69-21.69c-5.99 5.99-15.7 5.99-21.69 0s-5.99-15.7 0-21.69l-21.69-21.69c-17.97 17.97-17.97 47.11 0 65.08s47.1 17.96 65.07-.01z" fill="#d9e021"/><path d="m130.15 199.18-130.15 130.15 21.69 21.69 130.15-130.15c5.99-5.99 15.7-5.99 21.69 0l21.69-21.69c-17.96-17.97-47.1-17.97-65.07 0z" fill="#8cc63f"/><path d="m173.53 220.87c5.99 5.99 5.99 15.7 0 21.69l-32.53 32.54c-17.97 17.97-17.97 47.11 0 65.08l21.69-21.69c-5.99-5.99-5.99-15.7 0-21.69l32.54-32.54c17.97-17.97 17.97-47.11 0-65.08z" fill="#39b54a"/><path d="m281.99 177.48 21.69 21.69-119.3 119.31.01.01c-5.99 5.99-15.7 5.99-21.69 0l-21.7 21.69c17.97 17.97 47.11 17.97 65.08 0l-.01-.01 119.31-119.31 21.69 21.69 32.54-97.61z" fill="#009245"/><path d="m135.57 96.14c-14.98-14.98-14.98-39.26 0-54.23s39.25-14.98 54.23 0l21.69-21.69c-26.96-26.96-70.66-26.96-97.61 0-26.96 26.96-26.96 70.66 0 97.61z" fill="#f15a24"/><path d="m189.8 41.91c14.98 14.98 14.98 39.26 0 54.23-14.98 14.98-39.25 14.98-54.23 0l-21.69 21.69c26.96 26.96 70.66 26.96 97.61 0 26.96-26.96 26.96-70.66 0-97.61z" fill="#fbb03b"/></svg>